<mxfile host="app.diagrams.net" agent="Mozilla/5.0 (Windows NT 10.0; Win64; x64) AppleWebKit/537.36 (KHTML, like Gecko) Chrome/138.0.0.0 Safari/537.36 Edg/138.0.0.0" version="28.0.6">
  <diagram name="第 1 页" id="V6pf3GS-7zc-uk2PHbtz">
    <mxGraphModel dx="1558" dy="1106" grid="1" gridSize="10" guides="1" tooltips="1" connect="1" arrows="1" fold="1" page="1" pageScale="1" pageWidth="827" pageHeight="1169" math="0" shadow="0">
      <root>
        <mxCell id="0" />
        <mxCell id="1" parent="0" />
        <mxCell id="NGZoiBR76gbujGB8mwv5-5" style="edgeStyle=orthogonalEdgeStyle;rounded=0;orthogonalLoop=1;jettySize=auto;html=1;exitX=0.5;exitY=1;exitDx=0;exitDy=0;entryX=0.5;entryY=0;entryDx=0;entryDy=0;" edge="1" parent="1" source="NGZoiBR76gbujGB8mwv5-1" target="NGZoiBR76gbujGB8mwv5-2">
          <mxGeometry relative="1" as="geometry" />
        </mxCell>
        <mxCell id="NGZoiBR76gbujGB8mwv5-1" value="C端&lt;div&gt;日历房页面&lt;/div&gt;" style="rounded=1;whiteSpace=wrap;html=1;" vertex="1" parent="1">
          <mxGeometry x="320" y="210" width="120" height="60" as="geometry" />
        </mxCell>
        <mxCell id="NGZoiBR76gbujGB8mwv5-10" style="edgeStyle=orthogonalEdgeStyle;rounded=0;orthogonalLoop=1;jettySize=auto;html=1;exitX=0;exitY=0.25;exitDx=0;exitDy=0;entryX=0.75;entryY=1;entryDx=0;entryDy=0;" edge="1" parent="1" source="NGZoiBR76gbujGB8mwv5-2" target="NGZoiBR76gbujGB8mwv5-9">
          <mxGeometry relative="1" as="geometry" />
        </mxCell>
        <mxCell id="NGZoiBR76gbujGB8mwv5-13" style="edgeStyle=orthogonalEdgeStyle;rounded=0;orthogonalLoop=1;jettySize=auto;html=1;exitX=0.5;exitY=1;exitDx=0;exitDy=0;entryX=0.5;entryY=0;entryDx=0;entryDy=0;" edge="1" parent="1" source="NGZoiBR76gbujGB8mwv5-2" target="NGZoiBR76gbujGB8mwv5-3">
          <mxGeometry relative="1" as="geometry" />
        </mxCell>
        <mxCell id="NGZoiBR76gbujGB8mwv5-2" value="订单生成" style="rounded=1;whiteSpace=wrap;html=1;" vertex="1" parent="1">
          <mxGeometry x="320" y="380" width="120" height="60" as="geometry" />
        </mxCell>
        <mxCell id="NGZoiBR76gbujGB8mwv5-15" style="edgeStyle=orthogonalEdgeStyle;rounded=0;orthogonalLoop=1;jettySize=auto;html=1;exitX=0.5;exitY=1;exitDx=0;exitDy=0;entryX=0.5;entryY=0;entryDx=0;entryDy=0;" edge="1" parent="1" source="NGZoiBR76gbujGB8mwv5-3" target="NGZoiBR76gbujGB8mwv5-4">
          <mxGeometry relative="1" as="geometry" />
        </mxCell>
        <mxCell id="NGZoiBR76gbujGB8mwv5-3" value="订单处理" style="rounded=1;whiteSpace=wrap;html=1;" vertex="1" parent="1">
          <mxGeometry x="320" y="555" width="120" height="60" as="geometry" />
        </mxCell>
        <mxCell id="NGZoiBR76gbujGB8mwv5-4" value="酒店" style="rounded=1;whiteSpace=wrap;html=1;" vertex="1" parent="1">
          <mxGeometry x="320" y="720" width="120" height="60" as="geometry" />
        </mxCell>
        <mxCell id="NGZoiBR76gbujGB8mwv5-6" value="选房型、填写入离日期&lt;div&gt;用户点提交&lt;/div&gt;" style="text;html=1;align=center;verticalAlign=middle;resizable=0;points=[];autosize=1;strokeColor=none;fillColor=none;" vertex="1" parent="1">
          <mxGeometry x="260" y="303" width="140" height="40" as="geometry" />
        </mxCell>
        <mxCell id="NGZoiBR76gbujGB8mwv5-8" value="" style="endArrow=classic;html=1;rounded=0;exitX=0.393;exitY=1.028;exitDx=0;exitDy=0;exitPerimeter=0;" edge="1" parent="1" source="NGZoiBR76gbujGB8mwv5-9">
          <mxGeometry width="50" height="50" relative="1" as="geometry">
            <mxPoint x="150" y="300" as="sourcePoint" />
            <mxPoint x="320" y="410" as="targetPoint" />
            <Array as="points">
              <mxPoint x="150" y="410" />
              <mxPoint x="220" y="410" />
            </Array>
          </mxGeometry>
        </mxCell>
        <mxCell id="NGZoiBR76gbujGB8mwv5-9" value="金融&lt;div&gt;支付中心&lt;/div&gt;" style="rounded=1;whiteSpace=wrap;html=1;" vertex="1" parent="1">
          <mxGeometry x="110" y="210" width="100" height="60" as="geometry" />
        </mxCell>
        <mxCell id="NGZoiBR76gbujGB8mwv5-11" value="创支付单" style="text;html=1;align=center;verticalAlign=middle;resizable=0;points=[];autosize=1;strokeColor=none;fillColor=none;" vertex="1" parent="1">
          <mxGeometry x="170" y="368" width="70" height="30" as="geometry" />
        </mxCell>
        <mxCell id="NGZoiBR76gbujGB8mwv5-12" value="支付回调" style="text;html=1;align=center;verticalAlign=middle;resizable=0;points=[];autosize=1;strokeColor=none;fillColor=none;" vertex="1" parent="1">
          <mxGeometry x="140" y="410" width="70" height="30" as="geometry" />
        </mxCell>
        <mxCell id="NGZoiBR76gbujGB8mwv5-14" value="提交" style="text;html=1;align=center;verticalAlign=middle;resizable=0;points=[];autosize=1;strokeColor=none;fillColor=none;" vertex="1" parent="1">
          <mxGeometry x="380" y="478" width="50" height="30" as="geometry" />
        </mxCell>
        <mxCell id="NGZoiBR76gbujGB8mwv5-16" value="发单" style="text;html=1;align=center;verticalAlign=middle;resizable=0;points=[];autosize=1;strokeColor=none;fillColor=none;" vertex="1" parent="1">
          <mxGeometry x="380" y="650" width="50" height="30" as="geometry" />
        </mxCell>
        <mxCell id="NGZoiBR76gbujGB8mwv5-19" style="edgeStyle=orthogonalEdgeStyle;rounded=0;orthogonalLoop=1;jettySize=auto;html=1;exitX=0.5;exitY=1;exitDx=0;exitDy=0;entryX=0.5;entryY=0;entryDx=0;entryDy=0;" edge="1" parent="1" source="NGZoiBR76gbujGB8mwv5-17" target="NGZoiBR76gbujGB8mwv5-18">
          <mxGeometry relative="1" as="geometry" />
        </mxCell>
        <mxCell id="NGZoiBR76gbujGB8mwv5-17" value="C端&lt;div&gt;预售券预约页面&lt;/div&gt;" style="rounded=1;whiteSpace=wrap;html=1;" vertex="1" parent="1">
          <mxGeometry x="530" y="210" width="120" height="60" as="geometry" />
        </mxCell>
        <mxCell id="NGZoiBR76gbujGB8mwv5-21" style="edgeStyle=orthogonalEdgeStyle;rounded=0;orthogonalLoop=1;jettySize=auto;html=1;entryX=1;entryY=0.5;entryDx=0;entryDy=0;" edge="1" parent="1" source="NGZoiBR76gbujGB8mwv5-18" target="NGZoiBR76gbujGB8mwv5-2">
          <mxGeometry relative="1" as="geometry" />
        </mxCell>
        <mxCell id="NGZoiBR76gbujGB8mwv5-18" value="预售套餐&lt;div&gt;订单系统&lt;/div&gt;" style="rounded=1;whiteSpace=wrap;html=1;" vertex="1" parent="1">
          <mxGeometry x="530" y="380" width="120" height="60" as="geometry" />
        </mxCell>
        <mxCell id="NGZoiBR76gbujGB8mwv5-20" value="填写入离日期&lt;div&gt;用户点提交&lt;/div&gt;" style="text;html=1;align=center;verticalAlign=middle;resizable=0;points=[];autosize=1;strokeColor=none;fillColor=none;" vertex="1" parent="1">
          <mxGeometry x="500" y="303" width="100" height="40" as="geometry" />
        </mxCell>
      </root>
    </mxGraphModel>
  </diagram>
</mxfile>
